<svg width="48" height="48" viewBox="0 0 48 48" fill="none" xmlns="http://www.w3.org/2000/svg">
<rect width="48" height="48" rx="8" fill="#E9DED4"/>
<path d="M36.8362 41.1731H36.0997C36.0997 41.1652 36.0961 41.1574 36.0945 41.1501L36.0744 41.06C36.0615 41.0007 36.0475 40.942 36.0331 40.8837C36.0269 40.8563 36.0201 40.8288 36.0134 40.8014C35.9943 40.7245 35.9742 40.6477 35.9535 40.5708L35.9473 40.5488C35.9246 40.4655 35.9008 40.3826 35.876 40.3L35.8513 40.2202C35.8342 40.1634 35.8161 40.1071 35.7996 40.0508C35.7898 40.0199 35.7795 39.9896 35.7696 39.9592C35.7516 39.9048 35.733 39.8505 35.7139 39.7966C35.704 39.7682 35.6937 39.7393 35.6839 39.7114C35.6598 39.6439 35.635 39.5768 35.6095 39.5102C35.6038 39.496 35.5992 39.4823 35.5935 39.4681C35.5636 39.3897 35.5321 39.3119 35.5 39.234C35.4887 39.2056 35.4768 39.1777 35.4649 39.1498C35.4432 39.1008 35.4215 39.047 35.3993 38.996L35.3575 38.9015C35.3358 38.8526 35.3136 38.8036 35.2909 38.7546C35.2769 38.7243 35.2624 38.6934 35.248 38.6631C35.2216 38.6068 35.1963 38.5509 35.1669 38.4956C35.1561 38.4745 35.1462 38.453 35.1354 38.4315C35.0987 38.3585 35.061 38.2846 35.0228 38.214L34.9711 38.1225L34.8983 37.9898L34.8415 37.8919C34.8178 37.8507 34.794 37.8096 34.7697 37.7685C34.7506 37.7352 34.731 37.7019 34.7114 37.6705C34.6845 37.626 34.6597 37.5824 34.6303 37.5383L34.5559 37.4188C34.5208 37.364 34.4856 37.3087 34.4495 37.2543C34.4268 37.22 34.404 37.1863 34.3808 37.1525C34.3576 37.1187 34.3323 37.08 34.3075 37.0443C34.2827 37.0085 34.2558 36.9728 34.2331 36.9375C34.2104 36.9023 34.1856 36.8704 34.1613 36.8396C34.137 36.8087 34.1096 36.7676 34.0833 36.7319L34.0105 36.6339C33.9588 36.5688 33.9113 36.5037 33.8607 36.4381L33.7899 36.3484C33.76 36.3107 33.729 36.2735 33.6985 36.2363L33.6303 36.154C33.5988 36.1163 33.5668 36.0791 33.5348 36.0414L33.4676 35.9641L33.3674 35.8505L33.3081 35.7848C33.1846 35.6492 33.0581 35.5155 32.9284 35.3853L32.8716 35.328L32.7528 35.2119L32.6945 35.1561C32.6531 35.1165 32.6118 35.0773 32.57 35.0386L32.5271 34.9994C32.381 34.8648 32.2307 34.7335 32.0778 34.6077L32.0359 34.5729C31.9888 34.5338 31.9412 34.4951 31.8934 34.4569L31.8459 34.4187C31.7942 34.3795 31.7472 34.3408 31.6971 34.3022L31.6718 34.2831C31.5029 34.1538 31.3299 34.0279 31.1553 33.907L31.131 33.8899C31.0758 33.8522 31.0205 33.8149 30.9647 33.7782L30.9281 33.7542C30.8713 33.7165 30.8139 33.6798 30.7566 33.6431L30.7468 33.6372C30.5567 33.5167 30.363 33.4013 30.1657 33.291L30.158 33.2861C30.0955 33.2513 30.033 33.2176 29.9705 33.1838L29.9431 33.1691C29.6105 32.9912 29.2689 32.8279 28.9184 32.6794L28.8967 32.6701C28.8043 32.6309 28.7113 32.5932 28.6173 32.556H30.4658C30.7669 32.556 31.0112 32.2275 31.0112 31.8215C31.0112 31.4156 30.7669 31.087 30.4658 31.087H29.9152C29.9493 31.0048 29.987 30.9117 30.0278 30.807C30.5484 30.4994 31.4647 29.8443 32.3737 28.6407L32.381 28.6314C32.4498 28.5413 32.5175 28.4481 32.5839 28.3518L32.5974 28.3327C32.6635 28.2382 32.7296 28.1408 32.7947 28.0389L32.8122 28.012C32.8432 27.963 32.8742 27.914 32.9052 27.8651C32.9052 27.8651 32.9052 27.8612 32.9088 27.8587C32.9408 27.8097 32.9723 27.7559 33.0038 27.7035L33.024 27.6697C33.0508 27.6246 33.0782 27.5786 33.1046 27.5321C33.1097 27.5238 33.1149 27.5155 33.1195 27.5066C33.15 27.4538 33.1805 27.3999 33.2104 27.3455L33.2311 27.3078C33.2559 27.2628 33.2802 27.2172 33.3044 27.1712C33.3117 27.1585 33.3189 27.1453 33.3256 27.132C33.3545 27.0767 33.3835 27.0209 33.4124 26.9641L33.4325 26.9244C33.4553 26.8784 33.4785 26.8314 33.5012 26.7844L33.526 26.7354C33.5539 26.6776 33.5813 26.6189 33.6086 26.5596L33.6257 26.5219C33.6484 26.473 33.6706 26.424 33.6928 26.375L33.7192 26.3163C33.745 26.257 33.7708 26.1973 33.7956 26.1371C33.8003 26.1263 33.8049 26.115 33.809 26.1042C33.8323 26.0489 33.855 25.9926 33.8777 25.9358L33.9036 25.8712C33.9247 25.8173 33.9459 25.763 33.9666 25.7086L33.9821 25.6675C34.0063 25.6028 34.0301 25.5367 34.0539 25.4716L34.0787 25.4021C34.0973 25.3502 34.1153 25.2973 34.1334 25.2444C34.1401 25.2248 34.1468 25.2052 34.153 25.1856C34.1758 25.1181 34.1985 25.049 34.2207 24.98C34.2279 24.956 34.2357 24.931 34.2429 24.9085L34.2945 24.7474C34.3013 24.7239 34.3085 24.6984 34.3152 24.6774C34.3364 24.6064 34.3576 24.5339 34.3777 24.4609C34.3844 24.4379 34.3906 24.4144 34.3968 24.3909C34.4123 24.3346 34.4278 24.2783 34.4428 24.221C34.4495 24.1951 34.4562 24.1691 34.4634 24.1432C34.4826 24.0677 34.5017 23.9919 34.5203 23.915L34.5358 23.8508C34.5502 23.7896 34.5647 23.7279 34.5786 23.6657L34.5972 23.5825C34.6148 23.5027 34.6323 23.4229 34.6489 23.3416C34.6525 23.3259 34.6556 23.3098 34.6587 23.2926C34.6731 23.2226 34.6871 23.1516 34.7005 23.0806C34.7062 23.0517 34.7114 23.0228 34.717 22.9939C34.7305 22.921 34.7434 22.847 34.7563 22.7741C34.7589 22.7584 34.762 22.7432 34.7646 22.728C34.779 22.6419 34.7931 22.555 34.8069 22.4675C34.8116 22.4382 34.8162 22.4088 34.8203 22.3789C34.8312 22.3079 34.8415 22.2364 34.8518 22.1639L34.8611 22.0974C34.8735 22.0073 34.8854 21.9167 34.8968 21.8246C34.9004 21.7957 34.9035 21.7668 34.9071 21.7375C34.9161 21.6643 34.9243 21.5909 34.9319 21.5171C34.935 21.4907 34.9381 21.4647 34.9407 21.4383C34.9507 21.3436 34.96 21.2481 34.9686 21.1518C34.9686 21.1249 34.9732 21.098 34.9753 21.0705C34.982 20.9932 34.9887 20.9153 34.9944 20.837C34.9944 20.8081 34.999 20.7792 35.0011 20.7503C35.0083 20.6504 35.0151 20.5499 35.0213 20.4487C35.0213 20.4257 35.0213 20.3997 35.0249 20.3791C35.0295 20.2949 35.0342 20.2102 35.0378 20.125C35.0378 20.0942 35.0378 20.0633 35.0419 20.0325C35.046 19.9272 35.0502 19.8214 35.0533 19.7142C35.0533 19.6995 35.0533 19.6843 35.0533 19.6691C35.056 19.5738 35.0581 19.4775 35.0595 19.3802C35.0595 19.3484 35.0595 19.3166 35.0595 19.2847C35.0595 19.1803 35.0595 19.0752 35.0595 18.9694V18.9449C35.0595 18.8323 35.0595 18.7182 35.0595 18.6022V18.5042C35.0595 18.4063 35.0553 18.3035 35.0528 18.2016V18.1463C35.0491 18.0288 35.0445 17.9098 35.0398 17.7903C35.0398 17.7594 35.0367 17.7281 35.0357 17.6973C35.0312 17.5967 35.0261 17.4955 35.0202 17.3937C35.0202 17.3687 35.0202 17.3447 35.0161 17.3178C35.0089 17.1954 35.0009 17.072 34.9923 16.9476L34.9861 16.8609C34.9784 16.7571 34.9706 16.6528 34.9619 16.5475C34.9619 16.5172 34.9572 16.4868 34.9546 16.4565C34.9438 16.3291 34.9319 16.2004 34.9195 16.0711C34.9195 16.0466 34.9143 16.0221 34.9123 15.9972C34.9014 15.887 34.8895 15.7758 34.8777 15.6637C34.8741 15.6299 34.8704 15.5966 34.8663 15.5628C34.8518 15.4296 34.8363 15.296 34.8198 15.1603C34.8198 15.1437 34.8152 15.127 34.8131 15.1114C34.7983 14.9899 34.7826 14.8678 34.7661 14.7451C34.7609 14.7089 34.7563 14.6726 34.7511 14.6364C34.7318 14.4973 34.712 14.3571 34.6917 14.2158C32.6258 0.27317 17.9853 2.53589 17.9853 2.53589L18.4543 5.53164L9.6001 14.3994L9.98695 17.8236L13.341 19.7822C13.4906 19.4219 13.6825 19.0788 13.9133 18.7593C16.0774 16.3928 20.276 14.535 21.4778 14.1497C21.7185 14.0728 21.8554 14.0341 21.8554 14.0341C16.1063 21.0882 16.7602 29.1695 17.0164 31.0958C16.7499 31.1448 16.5438 31.4499 16.5438 31.822C16.5438 32.2275 16.7881 32.5565 17.0892 32.5565H18.9377C15.8634 33.7765 13.4231 36.1001 12.1495 39.02C12.148 39.024 12.1463 39.028 12.1443 39.0318C12.0503 39.2485 11.9629 39.4684 11.882 39.6914C11.8821 39.6936 11.8821 39.6959 11.882 39.6982C11.8603 39.7589 11.8391 39.8196 11.8184 39.8809C11.8107 39.9029 11.8029 39.9249 11.7957 39.9474C11.7771 40.0023 11.7599 40.0576 11.7441 40.1134C11.7348 40.1418 11.726 40.1707 11.7172 40.1991C11.7007 40.2515 11.6847 40.3044 11.6692 40.3573L11.6413 40.4552C11.6268 40.5042 11.6123 40.5566 11.5989 40.6075C11.5891 40.6437 11.5798 40.6795 11.5705 40.7157C11.5581 40.7647 11.5452 40.8137 11.5333 40.8626C11.5214 40.9116 11.5101 40.9606 11.4987 41.0125C11.4874 41.0644 11.4729 41.1251 11.4605 41.1819H10.7235C10.5817 41.1789 10.4408 41.2028 10.309 41.2522C10.1771 41.3016 10.057 41.3754 9.95565 41.4694C9.85431 41.5634 9.77379 41.6756 9.71882 41.7995C9.66385 41.9234 9.63553 42.0564 9.63553 42.1908C9.63553 42.3252 9.66385 42.4583 9.71882 42.5822C9.77379 42.706 9.85431 42.8183 9.95565 42.9123C10.057 43.0062 10.1771 43.0801 10.309 43.1295C10.4408 43.1788 10.5817 43.2027 10.7235 43.1998H36.8455C36.9872 43.2027 37.1281 43.1788 37.26 43.1295C37.3919 43.0801 37.512 43.0062 37.6133 42.9123C37.7147 42.8183 37.7952 42.706 37.8501 42.5822C37.9051 42.4583 37.9334 42.3252 37.9334 42.1908C37.9334 42.0564 37.9051 41.9234 37.8501 41.7995C37.7952 41.6756 37.7147 41.5634 37.6133 41.4694C37.512 41.3754 37.3919 41.3016 37.26 41.2522C37.1281 41.2028 36.9872 41.1789 36.8455 41.1819L36.8362 41.1731Z" fill="#595653"/>
</svg>
